<svg width="52" height="52" viewBox="0 0 52 52" fill="none" xmlns="http://www.w3.org/2000/svg">
    <path d="M45.5044 32.6711C44.723 32.2215 43.8087 32.0602 42.9206 32.2152C42.0325 32.3703 41.2269 32.8319 40.6441 33.5197L35.4737 30.8279V21.1722L40.6477 18.4783C41.2681 19.2041 42.1371 19.6722 43.0845 19.7911C44.0319 19.9099 44.9896 19.6709 45.77 19.1208C46.5505 18.5707 47.0975 17.7492 47.3041 16.817C47.5107 15.8847 47.362 14.909 46.887 14.0807C46.4121 13.2523 45.6451 12.6311 44.7362 12.3385C43.8273 12.0459 42.8419 12.1031 41.9729 12.4988C41.104 12.8945 40.4139 13.6003 40.0379 14.478C39.6619 15.3556 39.627 16.3421 39.94 17.2441L34.7628 19.9396L26.7109 15.7479V9.48109C27.6535 9.30395 28.496 8.78132 29.0734 8.01555C29.6508 7.24977 29.9215 6.29603 29.8326 5.34109C29.7436 4.38615 29.3014 3.49882 28.5925 2.85286C27.8836 2.20691 26.959 1.84888 26 1.84888C25.0409 1.84888 24.1164 2.20691 23.4074 2.85286C22.6985 3.49882 22.2563 4.38615 22.1673 5.34109C22.0784 6.29603 22.3491 7.24977 22.9265 8.01555C23.504 8.78132 24.3464 9.30395 25.289 9.48109V15.7479L17.2371 19.9396L12.0599 17.2441C12.3791 16.331 12.3457 15.3315 11.9663 14.4417C11.5869 13.5519 10.8889 12.8358 10.009 12.4339C9.12907 12.032 8.13079 11.9732 7.20981 12.2691C6.28884 12.565 5.51158 13.1942 5.03039 14.0334C4.54921 14.8725 4.3988 15.8612 4.60866 16.8055C4.81851 17.7498 5.37348 18.5816 6.1648 19.138C6.95612 19.6944 7.9267 19.9352 8.88631 19.8131C9.84592 19.6911 10.7253 19.2151 11.3522 18.4783L16.5262 21.1722V30.8279L11.3555 33.5197C10.7355 32.7898 9.86551 32.3176 8.91569 32.1955C7.96588 32.0734 7.0047 32.3102 6.22034 32.8596C5.43598 33.409 4.88493 34.2314 4.67509 35.1657C4.46525 36.1001 4.61172 37.0791 5.08584 37.9112C5.55995 38.7432 6.32756 39.3683 7.23837 39.6641C8.14918 39.9598 9.13759 39.905 10.0101 39.5102C10.8826 39.1155 11.5763 38.4093 11.9554 37.5299C12.3346 36.6506 12.3718 35.6613 12.0599 34.7559L17.2371 32.0605L25.289 36.2522V42.519C24.3464 42.6961 23.504 43.2187 22.9265 43.9845C22.3491 44.7503 22.0784 45.704 22.1673 46.659C22.2563 47.6139 22.6985 48.5012 23.4074 49.1472C24.1164 49.7931 25.0409 50.1512 26 50.1512C26.959 50.1512 27.8836 49.7931 28.5925 49.1472C29.3014 48.5012 29.7436 47.6139 29.8326 46.659C29.9215 45.704 29.6508 44.7503 29.0734 43.9845C28.496 43.2187 27.6535 42.6961 26.7109 42.519V36.2522L34.7628 32.0605L39.94 34.7559C39.7034 35.4461 39.6679 36.1892 39.8375 36.8988C40.0071 37.6083 40.3749 38.255 40.8979 38.7636C41.421 39.2721 42.0779 39.6215 42.7919 39.7711C43.506 39.9206 44.2478 39.8642 44.931 39.6082C45.6142 39.3523 46.2106 38.9075 46.6506 38.3256C47.0907 37.7438 47.3563 37.0488 47.4165 36.3217C47.4768 35.5947 47.3291 34.8655 46.9908 34.2191C46.6525 33.5728 46.1374 33.0359 45.5056 32.6711H45.5044ZM42.3661 13.8938C42.7819 13.6536 43.2595 13.5421 43.7386 13.5734C44.2177 13.6046 44.6768 13.7773 45.0578 14.0695C45.4388 14.3617 45.7245 14.7604 45.8789 15.215C46.0333 15.6697 46.0494 16.1599 45.9251 16.6237C45.8009 17.0874 45.5419 17.504 45.1809 17.8205C44.8199 18.1371 44.3732 18.3395 43.8971 18.4021C43.4211 18.4648 42.9372 18.3848 42.5066 18.1724C42.076 17.96 41.7181 17.6246 41.4781 17.2088C41.317 16.9333 41.2121 16.6285 41.1696 16.3122C41.127 15.9959 41.1476 15.6742 41.2302 15.3659C41.3128 15.0576 41.4557 14.7688 41.6507 14.5161C41.8457 14.2634 42.0889 14.0519 42.3661 13.8938ZM23.5726 5.70053C23.5726 5.22044 23.715 4.75114 23.9817 4.35197C24.2484 3.95279 24.6275 3.64167 25.0711 3.45796C25.5146 3.27424 26.0026 3.22617 26.4735 3.31983C26.9444 3.41349 27.3769 3.64467 27.7163 3.98414C28.0558 4.32361 28.287 4.75612 28.3807 5.22698C28.4743 5.69784 28.4263 6.18589 28.2425 6.62943C28.0588 7.07297 27.7477 7.45207 27.3485 7.71879C26.9493 7.98551 26.48 8.12787 26 8.12787C25.3564 8.12723 24.7394 7.87128 24.2843 7.41621C23.8292 6.96113 23.5733 6.3441 23.5726 5.70053ZM26 16.9813L33.2231 20.7419L26 24.5022L18.7768 20.7411L26 16.9813ZM7.20643 18.0985C6.79056 17.8586 6.45517 17.5008 6.24267 17.0703C6.03016 16.6398 5.95008 16.1559 6.01257 15.6799C6.07505 15.2039 6.27728 14.7571 6.59368 14.3961C6.91009 14.035 7.32646 13.7759 7.79015 13.6514C8.25383 13.527 8.744 13.5429 9.19866 13.697C9.65333 13.8512 10.0521 14.1367 10.3445 14.5175C10.6369 14.8982 10.8098 15.3572 10.8414 15.8362C10.8729 16.3153 10.7617 16.7929 10.5218 17.2088C10.1994 17.7656 9.66934 18.1719 9.04785 18.3385C8.42636 18.5051 7.76416 18.4185 7.20643 18.0977V18.0985ZM9.63377 38.1063C9.21803 38.3465 8.7404 38.458 8.26128 38.4267C7.78217 38.3954 7.32309 38.2227 6.94212 37.9305C6.56115 37.6383 6.2754 37.2397 6.12101 36.785C5.96662 36.3304 5.95053 35.8402 6.07477 35.3764C6.19902 34.9126 6.45801 34.4961 6.819 34.1795C7.17999 33.863 7.62676 33.6605 8.10279 33.5979C8.57883 33.5353 9.06274 33.6152 9.49333 33.8276C9.92393 34.0401 10.2818 34.3754 10.5218 34.7913C10.6829 35.0668 10.7878 35.3715 10.8304 35.6879C10.8729 36.0042 10.8523 36.3258 10.7697 36.6341C10.6871 36.9424 10.5442 37.2313 10.3492 37.484C10.1542 37.7367 9.91104 37.9482 9.63377 38.1063ZM17.9481 21.9123L25.289 25.7343V34.6495L17.9481 30.8279V21.9123ZM28.4273 46.2995C28.4273 46.7796 28.2849 47.2489 28.0182 47.6481C27.7515 48.0473 27.3724 48.3584 26.9289 48.5421C26.4853 48.7258 25.9973 48.7739 25.5264 48.6802C25.0555 48.5866 24.623 48.3554 24.2836 48.0159C23.9441 47.6764 23.7129 47.2439 23.6193 46.7731C23.5256 46.3022 23.5737 45.8142 23.7574 45.3706C23.9411 44.9271 24.2522 44.548 24.6514 44.2813C25.0506 44.0145 25.5199 43.8722 26 43.8722C26.6435 43.8728 27.2606 44.1288 27.7156 44.5838C28.1707 45.0389 28.4267 45.656 28.4273 46.2995ZM26.7109 34.6495V25.7343L34.0518 21.9123V30.8279L26.7109 34.6495ZM45.6828 37.2182C45.4427 37.634 45.0848 37.9692 44.6542 38.1816C44.2236 38.3939 43.7398 38.4738 43.2638 38.4111C42.7878 38.3485 42.3411 38.1461 41.9802 37.8295C41.6192 37.513 41.3602 37.0965 41.236 36.6328C41.1117 36.1691 41.1278 35.6789 41.2821 35.2243C41.4364 34.7697 41.7221 34.3711 42.103 34.0788C42.4838 33.7865 42.9428 33.6138 43.4219 33.5824C43.9009 33.551 44.3785 33.6624 44.7943 33.9024C45.072 34.0602 45.3156 34.2716 45.5109 34.5243C45.7062 34.777 45.8493 35.0661 45.9319 35.3746C46.0145 35.6831 46.0349 36.005 45.992 36.3215C45.9491 36.638 45.8437 36.9428 45.682 37.2182H45.6828Z" fill="#F9B93C"/>
</svg>
