<svg width="52" height="49" viewBox="0 0 52 49" fill="none" xmlns="http://www.w3.org/2000/svg">
    <path fill-rule="evenodd" clip-rule="evenodd" d="M30.8384 3.51874C19.7527 0.490168 8.3241 7.17588 5.29553 18.4902C2.78125 27.9187 7.00982 37.5759 14.9527 42.2616L17.0098 38.4902C10.7241 34.7759 7.40982 27.1187 9.35268 19.5759C11.8098 10.6045 20.8955 5.23303 29.7527 7.69017C38.6098 10.0902 43.867 19.2902 41.5241 28.3187C40.3241 32.8902 37.3527 36.5473 33.5241 38.6616L32.3812 34.3187L26.4384 42.3187L35.467 46.2045L34.6098 42.9473C39.8098 40.3759 43.9812 35.5759 45.5812 29.4045C48.6098 18.1473 41.9812 6.54731 30.8384 3.51874ZM33.1812 28.8902L27.467 22.7759V13.633H23.467V24.0902V24.9473L24.0384 25.5759L30.2098 31.8616L33.1812 28.8902Z" fill="#F9B93C"/>
</svg>
