<svg width="52" height="52" viewBox="0 0 52 52" fill="none" xmlns="http://www.w3.org/2000/svg">
    <path d="M6.30273 19.7676C6.30417 21.4772 6.98379 23.1164 8.19244 24.3254C9.4011 25.5345 11.0401 26.2147 12.7497 26.2167H17.8576V30.9432H13.3932C13.184 30.9432 12.9834 31.0263 12.8355 31.1742C12.6876 31.3221 12.6045 31.5227 12.6045 31.7319C12.6045 31.9411 12.6876 32.1417 12.8355 32.2896C12.9834 32.4375 13.184 32.5206 13.3932 32.5206H18.6462C18.8551 32.5203 19.0554 32.4373 19.2032 32.2896C19.351 32.142 19.4343 31.9419 19.4349 31.733V19.1241C19.4349 18.9149 19.3518 18.7143 19.2039 18.5664C19.056 18.4185 18.8554 18.3354 18.6462 18.3354C18.4371 18.3354 18.2365 18.4185 18.0886 18.5664C17.9407 18.7143 17.8576 18.9149 17.8576 19.1241V24.6382H12.7497C11.5432 24.6324 10.3819 24.1788 9.49092 23.3652C8.59999 22.5517 8.04295 21.4362 7.92785 20.2353C7.81274 19.0343 8.14777 17.8333 8.86796 16.8654C9.58815 15.8974 10.6422 15.2314 11.8256 14.9966C11.9486 14.9734 12.0644 14.9213 12.1633 14.8445C12.2623 14.7676 12.3415 14.6684 12.3944 14.5549C12.4473 14.4414 12.4725 14.3169 12.4678 14.1918C12.463 14.0666 12.4286 13.9444 12.3672 13.8352C11.9069 13.007 11.7548 12.0425 11.938 11.1128C12.1212 10.1831 12.6279 9.3484 13.3681 8.75678C14.1082 8.16516 15.0341 7.85489 15.9813 7.88103C16.9285 7.90717 17.8358 8.26803 18.5422 8.89957C18.6487 8.99639 18.7797 9.06219 18.9209 9.08981C19.0622 9.11743 19.2083 9.10582 19.3434 9.05624C19.4785 9.00666 19.5974 8.92101 19.6873 8.8086C19.7771 8.69618 19.8345 8.56129 19.8531 8.41857C19.9874 7.37659 20.3295 6.37216 20.859 5.46477C21.3885 4.55738 22.0948 3.76549 22.9359 3.136C23.7771 2.5065 24.736 2.05221 25.7559 1.80003C26.7758 1.54785 27.8359 1.5029 28.8735 1.66785C29.911 1.83281 30.9049 2.2043 31.7963 2.76034C32.6877 3.31638 33.4585 4.04565 34.0629 4.90497C34.6674 5.76428 35.0932 6.73615 35.3153 7.76303C35.5373 8.7899 35.551 9.85089 35.3556 10.8832C35.3318 11.0106 35.3399 11.142 35.3792 11.2656C35.4184 11.3893 35.4875 11.5013 35.5805 11.5917C35.6734 11.6822 35.7872 11.7483 35.9118 11.7842C36.0365 11.8201 36.168 11.8247 36.2948 11.7975C37.1847 11.6106 38.1039 11.6126 38.9929 11.8036C39.8819 11.9945 40.7209 12.3701 41.4555 12.9059C42.1901 13.4418 42.804 14.1259 43.2573 14.9141C43.7107 15.7023 43.9934 16.577 44.0872 17.4814C44.1811 18.3858 44.0839 19.2999 43.8019 20.1643C43.52 21.0288 43.0596 21.8244 42.4506 22.4996C41.8416 23.1748 41.0976 23.7146 40.2667 24.0839C39.4358 24.4533 38.5366 24.644 37.6273 24.6437H34.1422V19.1295C34.1347 18.9255 34.0483 18.7324 33.9014 18.5908C33.7544 18.4492 33.5582 18.37 33.3541 18.37C33.15 18.37 32.9538 18.4492 32.8069 18.5908C32.6599 18.7324 32.5735 18.9255 32.566 19.1295V31.7319C32.5663 31.9407 32.6493 32.1409 32.797 32.2885C32.9446 32.4361 33.1448 32.5192 33.3536 32.5195H38.6067C38.8158 32.5195 39.0164 32.4364 39.1643 32.2885C39.3122 32.1406 39.3953 31.94 39.3953 31.7308C39.3953 31.5217 39.3122 31.3211 39.1643 31.1732C39.0164 31.0252 38.8158 30.9422 38.6067 30.9422H34.1422V26.2167H37.6262C38.7104 26.2166 39.7834 25.9982 40.7812 25.5743C41.7791 25.1505 42.6813 24.53 43.434 23.7498C44.1868 22.9696 44.7747 22.0458 45.1625 21.0334C45.5504 20.021 45.7304 18.9409 45.6916 17.8575C45.6529 16.774 45.3963 15.7095 44.9371 14.7274C44.4779 13.7454 43.8256 12.8659 43.019 12.1414C42.2125 11.417 41.2683 10.8625 40.2427 10.511C39.2171 10.1595 38.1313 10.0182 37.0499 10.0956C37.0672 9.87241 37.0748 9.65141 37.0748 9.43366C37.0885 7.13952 36.2649 4.91917 34.7585 3.18886C33.2521 1.45854 31.1663 0.337085 28.8922 0.0347227C26.618 -0.267639 24.3116 0.269859 22.4054 1.54645C20.4993 2.82304 19.1241 4.75107 18.5379 6.96907C17.5481 6.42488 16.4165 6.19385 15.2927 6.30652C14.1688 6.41919 13.1056 6.87026 12.2436 7.60011C11.3815 8.32995 10.7613 9.30421 10.4648 10.3941C10.1683 11.484 10.2095 12.6382 10.583 13.7042C9.33164 14.1505 8.24879 14.9726 7.4826 16.058C6.71642 17.1434 6.30433 18.439 6.30273 19.7676Z" fill="#F9B93C"/>
    <path d="M42.8091 32.5184C43.244 32.5184 43.5966 32.1658 43.5966 31.7308C43.5966 31.2959 43.244 30.9432 42.8091 30.9432C42.3741 30.9432 42.0215 31.2959 42.0215 31.7308C42.0215 32.1658 42.3741 32.5184 42.8091 32.5184Z" fill="#F9B93C"/>
    <path d="M9.18993 32.5184C9.6249 32.5184 9.97751 32.1658 9.97751 31.7308C9.97751 31.2959 9.6249 30.9432 9.18993 30.9432C8.75496 30.9432 8.40234 31.2959 8.40234 31.7308C8.40234 32.1658 8.75496 32.5184 9.18993 32.5184Z" fill="#F9B93C"/>
    <path d="M26.0001 36.7217C26.4357 36.7217 26.7888 36.3686 26.7888 35.9331C26.7888 35.4975 26.4357 35.1444 26.0001 35.1444C25.5645 35.1444 25.2114 35.4975 25.2114 35.9331C25.2114 36.3686 25.5645 36.7217 26.0001 36.7217Z" fill="#F9B93C"/>
    <path d="M48.0599 6.30282H40.7084C40.6025 6.29889 40.4968 6.31637 40.3978 6.3542C40.2987 6.39204 40.2083 6.44946 40.132 6.52303C40.0556 6.5966 39.9949 6.68482 39.9534 6.7824C39.9119 6.87997 39.8905 6.98491 39.8905 7.09094C39.8905 7.19697 39.9119 7.30191 39.9534 7.39949C39.9949 7.49707 40.0556 7.58528 40.132 7.65885C40.2083 7.73243 40.2987 7.78985 40.3978 7.82768C40.4968 7.86552 40.6025 7.883 40.7084 7.87907H48.0599C48.6867 7.87993 49.2875 8.12922 49.7308 8.5723C50.1741 9.01539 50.4237 9.61614 50.4248 10.2429V38.8689H1.57625V10.2429C1.57711 9.61624 1.82643 9.01549 2.26955 8.57237C2.71267 8.12925 3.31342 7.87993 3.94008 7.87907H8.14017C8.24612 7.883 8.35178 7.86552 8.45083 7.82768C8.54988 7.78985 8.64028 7.73243 8.71663 7.65885C8.79298 7.58528 8.85372 7.49707 8.8952 7.39949C8.93668 7.30191 8.95806 7.19697 8.95806 7.09094C8.95806 6.98491 8.93668 6.87997 8.8952 6.7824C8.85372 6.68482 8.79298 6.5966 8.71663 6.52303C8.64028 6.44946 8.54988 6.39204 8.45083 6.3542C8.35178 6.31637 8.24612 6.29889 8.14017 6.30282H3.94008C2.89565 6.30396 1.8943 6.7193 1.15567 7.45773C0.417043 8.19615 0.00143364 9.19738 0 10.2418L0 41.756C0.00143303 42.8005 0.417008 43.8019 1.15561 44.5405C1.89421 45.2791 2.89555 45.6946 3.94008 45.6961H15.7582V50.4227H10.2429C10.0337 50.4227 9.83315 50.5057 9.68525 50.6536C9.53734 50.8015 9.45425 51.0022 9.45425 51.2113C9.45425 51.4205 9.53734 51.6211 9.68525 51.769C9.83315 51.9169 10.0337 52 10.2429 52H41.7571C41.9662 52 42.1669 51.9169 42.3148 51.769C42.4627 51.6211 42.5457 51.4205 42.5457 51.2113C42.5457 51.0022 42.4627 50.8015 42.3148 50.6536C42.1669 50.5057 41.9662 50.4227 41.7571 50.4227H36.2408V45.6961H48.0588C49.1036 45.6949 50.1052 45.2795 50.844 44.5408C51.5828 43.8022 51.9986 42.8007 52 41.756V10.2418C51.9991 9.19721 51.5837 8.19564 50.845 7.45709C50.1062 6.71854 49.1045 6.30339 48.0599 6.30282ZM34.6667 50.4227H17.3333V45.6961H34.6667V50.4227ZM50.4248 41.756C50.424 42.3828 50.1745 42.9838 49.7312 43.4269C49.2878 43.8701 48.6868 44.1192 48.0599 44.1198H3.939C3.31234 44.119 2.71159 43.8696 2.26847 43.4265C1.82535 42.9834 1.57603 42.3826 1.57517 41.756V40.4419H50.4237V41.756H50.4248Z" fill="#F9B93C"/>
    <path d="M26.7875 19.1241C26.7875 18.9149 26.7044 18.7143 26.5565 18.5664C26.4086 18.4185 26.208 18.3354 25.9989 18.3354C25.7897 18.3354 25.5891 18.4185 25.4412 18.5664C25.2933 18.7143 25.2102 18.9149 25.2102 19.1241V31.7308C25.2102 31.94 25.2933 32.1406 25.4412 32.2885C25.5891 32.4364 25.7897 32.5195 25.9989 32.5195C26.208 32.5195 26.4086 32.4364 26.5565 32.2885C26.7044 32.1406 26.7875 31.94 26.7875 31.7308V19.1241Z" fill="#F9B93C"/>
</svg>
