<svg width="48" height="52" viewBox="0 0 48 52" fill="none" xmlns="http://www.w3.org/2000/svg">
    <path d="M8.91592 52H4.39314C2.06451 52 0.170166 50.1227 0.170166 47.8144C0.170166 45.5061 2.06451 43.6288 4.39314 43.6288H8.91592V52ZM4.39314 45.2542C2.9607 45.2542 1.79517 46.4031 1.79517 47.8148C1.79517 49.2273 2.9607 50.3754 4.39314 50.3754H7.29051V45.2546H4.39314V45.2542Z" fill="#FFAD33"/>
    <path d="M42.8541 13.8572H18.5945V12.2322H42.3402L42.3406 12.2204L42.8732 12.2326L42.8541 13.8572Z" fill="#FFAD33"/>
    <path d="M1.81438 47.5162L0.195068 47.4187C0.199131 46.5619 0.199131 36.6116 0.195475 17.8465L0.195068 15.9774L0.200756 15.9303C0.446537 13.8222 2.24907 12.2322 4.39366 12.2322H10.63V13.8572H4.39326C3.08838 13.8572 1.98988 14.8074 1.81966 16.0749L1.82007 17.8457C1.82291 31.2755 1.82372 40.1927 1.8221 44.4925C2.5371 43.9489 3.43085 43.6284 4.39326 43.6284H42.2488V43.6125L43.6468 43.6284C44.9354 43.6284 46.0335 42.6729 46.2049 41.3997L46.2041 39.628C46.2008 20.8597 46.2008 10.9078 46.2049 10.0482L47.8299 10.0555C47.8258 10.9127 47.8258 20.8621 47.8291 39.6272L47.8299 41.498L47.8242 41.5447C47.5768 43.6592 45.7739 45.2534 43.6317 45.2534L43.3945 45.2485L43.0613 45.2534H4.39326C3.07376 45.2534 1.9651 46.2259 1.81438 47.5162Z" fill="#FFAD33"/>
    <path d="M46.2104 41.2892C46.0589 39.9981 44.9502 39.0256 43.6315 39.0256H41.1042V6.00354H43.6315C45.7745 6.00354 47.5774 7.59401 47.824 9.70245L47.8297 9.7967L47.8289 11.6175C47.8257 30.3842 47.8257 40.3345 47.8297 41.1905L46.2104 41.2892ZM42.7297 37.4006H43.6319C44.5935 37.4006 45.4877 37.7211 46.2027 38.2655C46.2011 33.9649 46.2019 25.0485 46.2043 11.6175L46.2051 9.84788C46.0345 8.57957 44.9356 7.62895 43.6319 7.62895H42.7297V37.4006Z" fill="#FFAD33"/>
    <path d="M31.4664 30.8408C29.3519 30.8408 27.6318 29.1358 27.6318 27.0396C27.6318 24.9429 29.3519 23.2371 31.4664 23.2371C33.581 23.2371 35.301 24.9429 35.301 27.0396C35.301 29.1358 33.581 30.8408 31.4664 30.8408ZM31.4664 24.8621C30.2485 24.8621 29.2568 25.8387 29.2568 27.0396C29.2568 28.24 30.2485 29.2158 31.4664 29.2158C32.6852 29.2158 33.676 28.24 33.676 27.0396C33.676 25.8387 32.6852 24.8621 31.4664 24.8621Z" fill="#FFAD33"/>
    <path d="M32.2795 20.579H30.6545V23.4057H32.2795V20.579Z" fill="#FFAD33"/>
    <path d="M32.2795 30.6727H30.6545V33.4998H32.2795V30.6727Z" fill="#FFAD33"/>
    <path d="M28.6889 24.5163L26.2141 23.103L25.4083 24.5142L27.8831 25.9274L28.6889 24.5163Z" fill="#FFAD33"/>
    <path d="M37.5244 29.5646L35.0488 28.1505L34.2428 29.5614L36.7184 30.9756L37.5244 29.5646Z" fill="#FFAD33"/>
    <path d="M28.6875 29.5587L27.8813 28.1479L25.4068 29.5619L26.2129 30.9727L28.6875 29.5587Z" fill="#FFAD33"/>
    <path d="M37.5291 24.5148L36.7236 23.1035L34.2478 24.5165L35.0534 25.9278L37.5291 24.5148Z" fill="#FFAD33"/>
    <path d="M20.4746 33.9361L14.4686 13.4208L8.46218 33.9361L6.90259 33.4798L14.469 7.63788L22.0342 33.4798L20.4746 33.9361Z" fill="#FFAD33"/>
    <path d="M14.4682 11.6963C12.3561 11.6963 10.6377 9.99294 10.6377 7.89953C10.6377 5.80613 12.3561 4.10272 14.4682 4.10272C16.5803 4.10272 18.2988 5.80572 18.2988 7.89953C18.2988 9.99335 16.5803 11.6963 14.4682 11.6963ZM14.4682 5.72772C13.2519 5.72772 12.2627 6.70191 12.2627 7.89953C12.2627 9.09716 13.2523 10.0713 14.4682 10.0713C15.6841 10.0713 16.6738 9.09716 16.6738 7.89953C16.6738 6.70191 15.6841 5.72772 14.4682 5.72772Z" fill="#FFAD33"/>
    <path d="M15.2808 0H13.6558V4.56422H15.2808V0Z" fill="#FFAD33"/>
    <path d="M14.4678 23.9936C11.9466 23.9936 9.42544 23.4455 7.0769 22.3495L7.76387 20.8768C12.025 22.8658 16.9122 22.8654 21.173 20.8764L21.8603 22.3487C19.5114 23.4447 16.9894 23.9936 14.4678 23.9936Z" fill="#FFAD33"/>
</svg>
