<svg width="54" height="52" viewBox="0 0 54 52" fill="none" xmlns="http://www.w3.org/2000/svg">
    <path d="M29.1397 11.4494L24.7942 21.2269" stroke="#F9B93C" stroke-width="1.5" stroke-linecap="round" stroke-linejoin="round"/>
    <path d="M32.0599 11.773L39.3526 16.3381L32.0599 20.8994" stroke="#F9B93C" stroke-width="1.5" stroke-linecap="round" stroke-linejoin="round"/>
    <path d="M21.8741 11.773L14.5814 16.3381L21.8741 20.8994" stroke="#F9B93C" stroke-width="1.5" stroke-linecap="round" stroke-linejoin="round"/>
    <path d="M48.6792 0.770477H5.25473C2.77816 0.770477 0.770508 2.77813 0.770508 5.2547V33.8474C0.770508 36.3239 2.77816 38.3316 5.25473 38.3316H48.6792C51.1558 38.3316 53.1635 36.3239 53.1635 33.8474V5.2547C53.1635 2.77813 51.1558 0.770477 48.6792 0.770477Z" stroke="#F9B93C" stroke-width="1.5" stroke-linecap="round" stroke-linejoin="round"/>
    <path d="M14.9783 51.2295H38.9557" stroke="#F9B93C" stroke-width="1.5" stroke-linecap="round" stroke-linejoin="round"/>
    <path d="M23.0259 39.4604L22.8063 41.4983L18.1989 51.2295" stroke="#F9B93C" stroke-width="1.5" stroke-linecap="round" stroke-linejoin="round"/>
    <path d="M30.908 39.4604L31.1314 41.4983L35.735 51.2295" stroke="#F9B93C" stroke-width="1.5" stroke-linecap="round" stroke-linejoin="round"/>
    <path d="M48.6792 0.770477H5.25473C2.77816 0.770477 0.770508 2.77813 0.770508 5.2547V33.8474C0.770508 36.3239 2.77816 38.3316 5.25473 38.3316H48.6792C51.1558 38.3316 53.1635 36.3239 53.1635 33.8474V5.2547C53.1635 2.77813 51.1558 0.770477 48.6792 0.770477Z" stroke="#F9B93C" stroke-width="1.5" stroke-linecap="round" stroke-linejoin="round"/>
    <path d="M2.10339 31.7671H46.0595" stroke="#F9B93C" stroke-width="1.5" stroke-linecap="round" stroke-linejoin="round"/>
    <path d="M14.9783 51.2295H38.9557" stroke="#F9B93C" stroke-width="1.5" stroke-linecap="round" stroke-linejoin="round"/>
    <path d="M23.0259 39.4604L22.8063 41.4983L18.1989 51.2295" stroke="#F9B93C" stroke-width="1.5" stroke-linecap="round" stroke-linejoin="round"/>
    <path d="M30.908 39.4604L31.1314 41.4983L35.735 51.2295" stroke="#F9B93C" stroke-width="1.5" stroke-linecap="round" stroke-linejoin="round"/>
</svg>
