<svg width="48" height="48" viewBox="0 0 48 48" fill="none" xmlns="http://www.w3.org/2000/svg">
    <g clip-path="url(#clip0_180_344)">
        <path d="M27.5558 11.6713L36.3335 20.4491L20.4447 36.3379L11.6669 27.5602L27.5558 11.6713ZM21.6947 38.8657L38.8613 21.6991C39.2132 21.3472 39.3891 20.9305 39.3891 20.4491C39.3891 19.9676 39.2132 19.5509 38.8613 19.1991L28.8058 9.1435C28.4724 8.81017 28.0558 8.6435 27.5558 8.6435C27.0558 8.6435 26.6391 8.81017 26.3058 9.1435L9.13911 26.3102C8.78725 26.662 8.61133 27.0787 8.61133 27.5602C8.61133 28.0416 8.78725 28.4583 9.13911 28.8102L19.1947 38.8657C19.528 39.1991 19.9447 39.3657 20.4447 39.3657C20.9447 39.3657 21.3613 39.1991 21.6947 38.8657ZM46.3891 21.1713L21.1947 46.3935C20.5095 47.0787 19.6715 47.4213 18.6808 47.4213C17.69 47.4213 16.8521 47.0787 16.1669 46.3935L12.6669 42.8935C13.7039 41.8565 14.2224 40.5972 14.2224 39.1157C14.2224 37.6342 13.7039 36.375 12.6669 35.3379C11.6298 34.3009 10.3706 33.7824 8.88911 33.7824C7.40762 33.7824 6.14837 34.3009 5.11133 35.3379L1.63911 31.8379C0.953921 31.1528 0.611328 30.3148 0.611328 29.3241C0.611328 28.3333 0.953921 27.4953 1.63911 26.8102L26.8335 1.6435C27.5187 0.958315 28.3567 0.615723 29.3474 0.615723C30.3382 0.615723 31.1761 0.958315 31.8613 1.6435L35.3335 5.11572C34.2965 6.15276 33.778 7.41202 33.778 8.8935C33.778 10.375 34.2965 11.6342 35.3335 12.6713C36.3706 13.7083 37.6298 14.2268 39.1113 14.2268C40.5928 14.2268 41.8521 13.7083 42.8891 12.6713L46.3891 16.1435C47.0743 16.8287 47.4169 17.6666 47.4169 18.6574C47.4169 19.6481 47.0743 20.4861 46.3891 21.1713Z" fill="#F9B93C"/>
    </g>
    <defs>
        <clipPath id="clip0_180_344">
            <rect width="48" height="48" fill="white" transform="translate(0 0.00439453)"/>
        </clipPath>
    </defs>
</svg>
