<svg width="52" height="52" viewBox="0 0 52 52" fill="none" xmlns="http://www.w3.org/2000/svg">
    <g clip-path="url(#clip0_180_222)">
        <path d="M26.9818 6.4641C32.6656 6.4641 37.8114 8.768 41.5363 12.4929C45.2612 16.2178 47.5651 21.3636 47.5651 27.0474C47.5651 29.462 47.1492 31.7794 46.3852 33.9322L44.8806 32.4275C45.392 30.7238 45.667 28.9178 45.667 27.0474C45.667 21.8875 43.5756 17.2161 40.1944 13.8349C36.8131 10.4536 32.1417 8.36222 26.9818 8.36222C21.8219 8.36222 17.1505 10.4536 13.7693 13.8349C10.388 17.2162 8.29661 21.8876 8.29661 27.0474C8.29661 32.2073 10.388 36.8788 13.7693 40.26C17.1506 43.6412 21.822 45.7327 26.9818 45.7327C32.1417 45.7327 36.8132 43.6412 40.1944 40.26C41.3982 39.0561 42.4384 37.6887 43.279 36.1939L44.6677 37.5827C43.7916 39.0505 42.738 40.4002 41.5363 41.6019C37.8114 45.3268 32.6656 47.6307 26.9818 47.6307C21.298 47.6307 16.1521 45.3268 12.4272 41.6019C8.70233 37.8771 6.39844 32.7312 6.39844 27.0474C6.39844 21.3636 8.70233 16.2177 12.4272 12.4928C16.1521 8.76795 21.298 6.4641 26.9818 6.4641Z" fill="#F9B93C"/>
        <path d="M27.9307 7.41327V46.6818H26.0326V7.41327H27.9307Z" fill="#F9B93C"/>
        <path d="M11.0753 14.4553C16.4129 16.5819 21.752 17.6605 27.0838 17.6605C32.364 17.6605 37.6329 16.6031 42.8817 14.459L43.5935 16.2087C38.1015 18.4522 32.5953 19.5585 27.0838 19.5585C21.5222 19.5585 15.9507 18.4326 10.3784 16.2124L11.0753 14.4553Z" fill="#F9B93C"/>
        <path d="M30.2262 46.2516C32.3511 42.0897 33.5261 39.259 34.2432 34.9913C34.8322 35.2202 35.4502 35.3759 36.0844 35.453C35.3286 39.8651 34.1034 42.8284 31.9167 47.1116L30.2262 46.2516ZM34.1421 18.9345C33.374 15.1063 32.1475 11.7579 30.2225 7.82822L31.9204 6.99786C33.8923 11.0234 35.1602 14.4728 35.9646 18.4073C35.3347 18.5069 34.723 18.6844 34.1421 18.9345Z" fill="#F9B93C"/>
        <path d="M22.0474 47.1116C18.7763 40.7046 17.0715 34.1563 17.0368 27.4577C17.0022 20.7707 18.6366 13.9534 22.0437 6.99786L23.7416 7.82822C20.4658 14.5156 18.8943 21.0534 18.9274 27.4503C18.9605 33.8355 20.5972 40.1001 23.7379 46.2516L22.0474 47.1116Z" fill="#F9B93C"/>
        <path d="M10.3784 37.3886C15.9507 35.1684 21.5222 34.0425 27.0838 34.0425C32.5953 34.0425 38.1015 35.1488 43.5935 37.3923L42.8817 39.142C37.6328 36.9978 32.364 35.9405 27.0838 35.9405C21.752 35.9405 16.413 37.0191 11.0753 39.1457L10.3784 37.3886Z" fill="#F9B93C"/>
        <path d="M7.3678 26.0981H26.9825V27.9962H7.3678V26.0981Z" fill="#F9B93C"/>
        <path d="M37.2726 19.7921C39.1206 19.7921 40.7938 20.5412 42.005 21.7524C43.2162 22.9635 43.9653 24.6367 43.9653 26.4848C43.9653 28.3328 43.2162 30.006 42.005 31.2172C40.7938 32.4283 39.1206 33.1775 37.2726 33.1775C35.4245 33.1775 33.7513 32.4283 32.5401 31.2172C31.329 30.006 30.5798 28.3328 30.5798 26.4848C30.5798 24.6367 31.329 22.9635 32.5401 21.7524C33.7513 20.5412 35.4245 19.7921 37.2726 19.7921ZM40.844 22.9134C39.9301 21.9995 38.6673 21.4342 37.2726 21.4342C35.8778 21.4342 34.6151 21.9994 33.7012 22.9134C32.7873 23.8272 32.222 25.09 32.222 26.4848C32.222 27.8796 32.7873 29.1423 33.7012 30.0562C34.6151 30.9701 35.8778 31.5354 37.2726 31.5354C38.6674 31.5354 39.9301 30.9701 40.844 30.0561C41.7579 29.1422 42.3232 27.8795 42.3232 26.4848C42.3232 25.09 41.7579 23.8273 40.844 22.9134Z" fill="#F9B93C"/>
        <path d="M42.0237 30.7873L51.7917 40.6803L50.4498 42.0223L40.6816 32.1293L42.0237 30.7873Z" fill="#F9B93C"/>
    </g>
    <defs>
        <clipPath id="clip0_180_222">
            <rect width="52" height="52" fill="white"/>
        </clipPath>
    </defs>
</svg>
