<svg width="48" height="49" viewBox="0 0 48 49" fill="none" xmlns="http://www.w3.org/2000/svg">
    <path d="M34 8.5C33.4696 8.5 32.9609 8.28929 32.5858 7.91421C32.2107 7.53914 32 7.03043 32 6.5C32 5.96957 32.2107 5.46086 32.5858 5.08579C32.9609 4.71071 33.4696 4.5 34 4.5H42C42.5304 4.5 43.0391 4.71071 43.4142 5.08579C43.7893 5.46086 44 5.96957 44 6.5V14.5C44 15.0304 43.7893 15.5391 43.4142 15.9142C43.0391 16.2893 42.5304 16.5 42 16.5C41.4696 16.5 40.9609 16.2893 40.5858 15.9142C40.2107 15.5391 40 15.0304 40 14.5V11.328L28.414 22.914C28.0389 23.2889 27.5303 23.4996 27 23.4996C26.4697 23.4996 25.9611 23.2889 25.586 22.914L20 17.328L9.414 27.914C9.0368 28.2783 8.53159 28.4799 8.0072 28.4753C7.4828 28.4708 6.98118 28.2605 6.61036 27.8896C6.23955 27.5188 6.02921 27.0172 6.02465 26.4928C6.0201 25.9684 6.22168 25.4632 6.586 25.086L18.586 13.086C18.9611 12.7111 19.4697 12.5004 20 12.5004C20.5303 12.5004 21.0389 12.7111 21.414 13.086L27 18.672L37.172 8.5H34ZM10 36.5V42.5C10 43.0304 9.78929 43.5391 9.41421 43.9142C9.03914 44.2893 8.53043 44.5 8 44.5C7.46957 44.5 6.96086 44.2893 6.58579 43.9142C6.21071 43.5391 6 43.0304 6 42.5V36.5C6 35.9696 6.21071 35.4609 6.58579 35.0858C6.96086 34.7107 7.46957 34.5 8 34.5C8.53043 34.5 9.03914 34.7107 9.41421 35.0858C9.78929 35.4609 10 35.9696 10 36.5ZM20 28.5C20 27.9696 19.7893 27.4609 19.4142 27.0858C19.0391 26.7107 18.5304 26.5 18 26.5C17.4696 26.5 16.9609 26.7107 16.5858 27.0858C16.2107 27.4609 16 27.9696 16 28.5V42.5C16 43.0304 16.2107 43.5391 16.5858 43.9142C16.9609 44.2893 17.4696 44.5 18 44.5C18.5304 44.5 19.0391 44.2893 19.4142 43.9142C19.7893 43.5391 20 43.0304 20 42.5V28.5ZM28 30.5C28.5304 30.5 29.0391 30.7107 29.4142 31.0858C29.7893 31.4609 30 31.9696 30 32.5V42.5C30 43.0304 29.7893 43.5391 29.4142 43.9142C29.0391 44.2893 28.5304 44.5 28 44.5C27.4696 44.5 26.9609 44.2893 26.5858 43.9142C26.2107 43.5391 26 43.0304 26 42.5V32.5C26 31.9696 26.2107 31.4609 26.5858 31.0858C26.9609 30.7107 27.4696 30.5 28 30.5ZM40 22.5C40 21.9696 39.7893 21.4609 39.4142 21.0858C39.0391 20.7107 38.5304 20.5 38 20.5C37.4696 20.5 36.9609 20.7107 36.5858 21.0858C36.2107 21.4609 36 21.9696 36 22.5V42.5C36 43.0304 36.2107 43.5391 36.5858 43.9142C36.9609 44.2893 37.4696 44.5 38 44.5C38.5304 44.5 39.0391 44.2893 39.4142 43.9142C39.7893 43.5391 40 43.0304 40 42.5V22.5Z" fill="#F9B93C"/>
</svg>
