<svg width="52" height="52" viewBox="0 0 52 52" fill="none" xmlns="http://www.w3.org/2000/svg">
    <path d="M51.8343 42.3292H48.0167V40.7042H50.2093V7.51929H1.79077V40.7042H32.5207V42.3292H0.165771V5.89429H51.8343V42.3292Z" fill="#F9B93C"/>
    <path d="M26.0261 33.4352H5.55066V35.0598H26.0261V33.4352Z" fill="#F9B93C"/>
    <path d="M32.7718 24.7053H5.55066V26.3303H32.7718V24.7053Z" fill="#F9B93C"/>
    <path d="M32.7718 29.0708H5.55066V30.6958H32.7718V29.0708Z" fill="#F9B93C"/>
    <path d="M32.7718 20.0757H5.55066V21.7007H32.7718V20.0757Z" fill="#F9B93C"/>
    <path d="M51.8343 7.51928H0.165771V0H51.8343V7.51928ZM1.79077 5.89428H50.2093V1.625H1.79077V5.89428Z" fill="#F9B93C"/>
    <path d="M5.16346 2.90509H3.26465V4.52968H5.16346V2.90509Z" fill="#F9B93C"/>
    <path d="M8.45321 2.90509H6.55237V4.52968H8.45321V2.90509Z" fill="#F9B93C"/>
    <path d="M11.7407 2.90509H9.84106V4.52968H11.7407V2.90509Z" fill="#F9B93C"/>
    <path d="M23.129 16.5173H5.75452V11.0894H23.129V16.5173ZM7.37952 14.8923H21.504V12.7144H7.37952V14.8923Z" fill="#F9B93C"/>
    <path d="M43.3031 19.7685L43.3019 18.7557L40.3277 13.6715L37.3515 18.7553V19.7673H35.7269V18.315L40.3277 10.4536L44.9261 18.3146L44.9281 19.7665L43.3031 19.7685Z" fill="#F9B93C"/>
    <path d="M37.3498 41.3205H35.7252L35.7268 18.4945L44.928 18.4929V41.3193H43.303V20.1183L37.3514 20.1191L37.3498 41.3205Z" fill="#F9B93C"/>
    <path d="M43.2823 52H37.3677C36.4476 52 35.7257 51.3662 35.7236 50.557V48.741H37.3482V50.375C37.3543 50.375 37.3608 50.3754 37.3677 50.3754H43.2823C43.2909 50.3754 43.2994 50.375 43.3071 50.3746V48.7406H44.9321V50.5562C44.9321 51.3658 44.2074 52 43.2823 52Z" fill="#F9B93C"/>
    <path d="M44.928 46.7004H35.7252V40.7066H44.9276L44.928 46.7004ZM37.3498 45.0754H43.3026V42.3316H37.3498V45.0754Z" fill="#F9B93C"/>
</svg>
