<svg width="108" height="117" viewBox="0 0 108 117" fill="none" xmlns="http://www.w3.org/2000/svg">
    <path d="M107.885 36.537C106.977 28.7521 101.618 25.0175 99.2003 23.7132C97.9545 20.7129 94.0356 12.5766 86.4251 7.53912C83.3706 5.51612 79.0259 4.49176 73.5084 4.49176C69.8681 4.49176 66.2179 4.95751 63.8463 5.50183C61.5975 3.51883 56.8257 0 51.2825 0C50.3967 0 49.5209 0.0900078 48.6723 0.265735C42.5833 1.54154 37.7586 5.14752 35.7371 6.85907C35.1656 6.81907 34.4613 6.78764 33.6498 6.78764C30.4195 6.78764 25.7635 7.31339 21.9503 9.81929C17.1386 12.9681 15.2598 17.3984 14.5455 19.9686C9.64657 21.3873 4.18332 25.189 2.5032 32.1309C1.39883 36.6998 2.22746 40.6701 2.98752 42.9703C1.33311 45.0747 0.20017 48.3778 1.28311 52.4267C2.80465 58.0971 9.0751 64.2947 10.2138 65.3848L10.3523 65.5391L10.3552 65.5362C11.7296 67.1621 16.3756 72.0153 22.7475 72.0153C27.3922 72.0153 31.5667 70.3794 33.8741 69.2665C38.5644 72.9782 43.7276 75.0298 48.9537 75.3069L52.7583 70.2523C52.4754 70.2594 52.1683 70.2766 51.9197 70.2766C51.6325 70.2766 51.3682 70.2723 51.1353 70.2623H51.0282H50.9339C50.6682 70.2751 50.4081 70.2794 50.1467 70.2794C43.3748 70.2794 38.2772 66.4234 35.8899 64.3333C35.8128 64.2561 35.7313 64.1876 35.6442 64.1204C35.6242 63.9375 35.607 63.7532 35.5913 63.5747C35.5713 62.9146 35.5313 62.2074 35.467 61.4731C35.3427 56.9842 36.0899 53.4753 36.1214 53.321C36.8414 47.7521 43.5633 46.1948 43.6305 46.1791C44.2663 46.0405 44.6649 45.4105 44.5263 44.7776C44.4077 44.229 43.9162 43.8546 43.3748 43.8546C43.2933 43.8546 43.209 43.8618 43.1247 43.8789C42.7847 43.9532 34.7227 45.7891 33.8098 52.8796C33.8055 52.9139 33.7669 53.0553 33.7155 53.3039C33.7012 53.271 33.6826 53.2396 33.6655 53.2096C30.1024 46.7206 20.8903 44.0104 20.5017 43.8961C20.3945 43.8661 20.2859 43.8518 20.1759 43.8518C19.6644 43.8518 19.193 44.1889 19.0444 44.7033C18.8658 45.329 19.2258 45.9819 19.8516 46.1591C19.9359 46.1862 28.5151 48.7207 31.601 54.3426C32.3082 55.6284 32.8168 58.5614 33.0697 61.1945C33.0969 62.006 33.1497 62.8589 33.2383 63.7447C33.2383 63.7818 33.2383 63.8147 33.2412 63.8518C33.1569 63.8918 33.0726 63.9361 32.9926 63.9861C32.9454 64.0161 28.1208 66.9335 22.7447 66.9335C17.9029 66.9335 14.1383 62.1617 14.1069 62.1174L13.844 61.8274C12.0653 60.1701 7.23354 55.0055 6.19061 51.1123C5.21768 47.4763 7.33498 45.6976 7.54785 45.529L9.13654 44.3547L8.27362 42.586C8.25076 42.546 6.23061 38.3328 7.44213 33.3282C9.24083 25.8905 16.8842 24.6104 17.1971 24.5561L18.9644 24.2832L19.1858 22.5088C19.213 22.2973 19.8888 17.2455 24.742 14.0667C27.5393 12.2309 31.201 11.8709 33.6512 11.8709C35.2242 11.8709 36.2942 12.0166 36.3185 12.0195L37.4729 12.188L38.3015 11.3794C38.3515 11.3294 43.3062 6.58334 49.7109 5.24324C50.2353 5.13466 50.7624 5.08466 51.2839 5.08466C55.5914 5.08466 59.6174 8.48634 60.9289 9.71785C58.8587 11.2237 56.11 13.8224 53.8398 16.3141C51.8897 18.207 48.988 18.6371 46.755 18.6371C44.9192 18.6371 43.5362 18.3471 43.5062 18.3399C43.4219 18.3228 43.3376 18.3128 43.2533 18.3128C42.7119 18.3128 42.2261 18.6899 42.1075 19.2386C41.9689 19.8743 42.3675 20.4986 43.0033 20.6401C43.1447 20.6729 44.6834 21.0001 46.7479 21.0001C47.8522 21.0001 49.1052 20.9058 50.3738 20.6201C50.2595 20.8015 50.1538 20.9744 50.061 21.1387C47.9222 24.8775 50.8353 34.0325 51.1725 35.0654C51.3368 35.5612 51.7954 35.8741 52.294 35.8741C52.4111 35.8741 52.5369 35.8569 52.6569 35.8169C53.2769 35.6112 53.6127 34.9454 53.4112 34.3282C52.2568 30.8165 50.8825 24.4446 52.1054 22.3059C52.7283 21.2087 54.0255 19.6014 55.5542 17.9342C55.5614 17.9242 55.5671 17.9199 55.5771 17.9113C55.6042 17.8813 55.6342 17.8499 55.6585 17.817C58.5787 14.6482 62.3019 11.288 63.8777 10.7594C63.8806 10.7565 63.8877 10.7565 63.8905 10.7551C63.8948 10.7522 63.9005 10.7522 63.9048 10.7522C65.2321 10.2879 69.2395 9.57784 73.5113 9.57784C77.2044 9.57784 81.0947 10.1065 83.6234 11.7794C91.4354 16.9512 94.7928 26.3848 94.8242 26.4748L95.1871 27.492L96.1729 27.8892C96.4158 27.9892 102.055 30.3808 102.841 37.1299C103.645 44.0132 98.0359 48.2621 97.8202 48.425C92.244 43.0631 89.6982 38.0628 88.6109 34.0968C88.6066 33.9082 88.5595 33.7296 88.4724 33.5682C87.2808 28.7564 88.2309 25.5833 88.3138 25.3304C88.5124 24.7147 88.1766 24.0518 87.5623 23.8489C87.4408 23.8089 87.3137 23.7889 87.1923 23.7889C86.6965 23.7889 86.2365 24.1046 86.0736 24.5975C85.9822 24.8804 84.8421 28.5578 86.175 34.0525C80.6018 46.3677 71.5468 48.9164 65.0049 48.9164C60.6246 48.9164 57.3744 47.7749 57.0515 47.6563C56.9172 47.6063 56.7786 47.5821 56.6443 47.5821C56.1657 47.5821 55.7157 47.8792 55.5428 48.3564C55.3171 48.9664 55.6328 49.6422 56.24 49.8651C56.3271 49.8979 59.9503 51.1795 64.9035 51.1795C71.7225 51.1795 81.0647 48.7507 87.2023 37.2927C88.8152 41.4316 91.8654 46.2634 97.4487 51.2938C98.8831 52.5538 99.8403 55.3683 98.2159 58.6786C95.96 63.2489 90.3639 67.3435 90.3096 67.3835L90.1539 67.5107C89.0924 68.0836 87.0079 69.5337 83.5063 69.5337C80.4318 69.5337 76.2657 68.4164 70.731 64.6104C63.4877 59.6301 57.0386 58.4043 52.4497 58.4043C48.1894 58.4043 45.5292 59.4615 45.3206 59.5486C44.7249 59.8072 44.4491 60.5016 44.7077 61.0973C44.8992 61.5445 45.3278 61.8117 45.7849 61.8117C45.9421 61.8117 46.1021 61.7788 46.2564 61.7131C46.2993 61.6959 48.4123 60.8216 52.0625 60.8216C53.997 60.8216 56.3786 61.0859 59.0973 61.8345C59.1002 61.836 59.1031 61.8374 59.1059 61.8374C59.7717 62.0202 60.4574 62.2374 61.1646 62.4831C61.1775 62.4874 61.1889 62.4917 61.2004 62.496C61.9118 62.7446 62.6405 63.0289 63.3919 63.3518C63.3934 63.3518 63.3948 63.3532 63.3948 63.3532C64.3149 63.749 65.2549 64.179 66.2307 64.6962C65.3149 66.2763 63.8063 67.3935 62.0947 68.2207L60.4946 74.2054C63.4991 73.3754 66.6293 71.9753 68.9309 69.5208C74.1399 72.9025 79.0374 74.6155 83.5077 74.6155C87.9523 74.6155 90.8654 72.9553 92.2655 72.1567L92.5655 71.9853L92.9827 71.7624L93.3527 71.4624L93.417 71.4109C94.4942 70.6137 100.146 66.262 102.775 60.9287C104.722 56.9627 104.438 53.2368 103.068 50.4594C105.409 47.9035 108.652 43.1003 107.885 36.537Z" fill="#BD8D00"/>
    <path d="M70.2253 79.8088L58.9902 79.8074L63.392 63.3462C61.879 62.6961 60.4446 62.2004 59.0945 61.8275L38.6273 89.0238H49.8624L42.459 116.059L70.2253 79.8088Z" fill="#BD8D00"/>
</svg>
