<svg width="20" height="20" viewBox="0 0 20 20" fill="none" xmlns="http://www.w3.org/2000/svg">
    <g clip-path="url(#clip0_180_292)">
        <path fill-rule="evenodd" clip-rule="evenodd" d="M10 19.1667C15.0626 19.1667 19.1667 15.0626 19.1667 10C19.1667 4.93743 15.0626 0.833374 10 0.833374C4.93743 0.833374 0.833374 4.93743 0.833374 10C0.833374 15.0626 4.93743 19.1667 10 19.1667ZM13.9477 8.06314C14.2587 7.72388 14.2357 7.19674 13.8965 6.88574C13.5572 6.57475 13.0301 6.59767 12.7191 6.93693L8.75004 11.2668L7.28101 9.66421C6.97001 9.32494 6.44287 9.30202 6.10361 9.61302C5.76434 9.92401 5.74142 10.4511 6.05242 10.7904L8.13575 13.0631C8.29359 13.2353 8.51646 13.3334 8.75004 13.3334C8.98363 13.3334 9.2065 13.2353 9.36434 13.0631L13.9477 8.06314Z" fill="#F9B93C"/>
    </g>
    <defs>
        <clipPath id="clip0_180_292">
            <rect width="20" height="20" fill="white"/>
        </clipPath>
    </defs>
</svg>
