<svg width="271" height="49" viewBox="0 0 271 49" fill="none" xmlns="http://www.w3.org/2000/svg">
<path d="M46.0311 15.4259C45.6474 12.1392 43.3849 10.5624 42.3643 10.0117C41.8383 8.74502 40.1838 5.30986 36.9706 3.18302C35.681 2.32891 33.8467 1.89642 31.5171 1.89642C29.9802 1.89642 28.4391 2.09306 27.4378 2.32288C26.4884 1.48565 24.4737 0 22.1334 0C21.7594 0 21.3896 0.0380013 21.0313 0.112193C18.4605 0.65084 16.4236 2.17329 15.5701 2.89591C15.3288 2.87902 15.0314 2.86575 14.6888 2.86575C13.325 2.86575 11.3592 3.08772 9.74931 4.14571C7.71777 5.47514 6.92458 7.34562 6.62298 8.43076C4.55465 9.02972 2.24806 10.6348 1.53871 13.5657C1.07245 15.4947 1.4223 17.171 1.74319 18.1421C1.0447 19.0306 0.566374 20.4251 1.02359 22.1346C1.66599 24.5286 4.31338 27.1453 4.79412 27.6055L4.85263 27.6706L4.85383 27.6694C5.4341 28.3559 7.39567 30.4049 10.0859 30.4049C12.0468 30.4049 13.8094 29.7142 14.7835 29.2444C16.7638 30.8114 18.9437 31.6776 21.1502 31.7946L22.7565 29.6606C22.637 29.6636 22.5073 29.6708 22.4024 29.6708C22.2811 29.6708 22.1695 29.669 22.0712 29.6648H22.026H21.9862C21.874 29.6702 21.7642 29.672 21.6538 29.672C18.7947 29.672 16.6425 28.044 15.6346 27.1616C15.602 27.129 15.5677 27.1 15.5309 27.0717C15.5224 26.9945 15.5152 26.9167 15.5085 26.8413C15.5001 26.5626 15.4832 26.264 15.4561 25.954C15.4036 24.0588 15.7191 22.5773 15.7323 22.5122C16.0363 20.161 18.8743 19.5035 18.9027 19.4968C19.1711 19.4383 19.3394 19.1723 19.2809 18.9051C19.2308 18.6735 19.0233 18.5155 18.7947 18.5155C18.7603 18.5155 18.7247 18.5185 18.6892 18.5257C18.5456 18.5571 15.1418 19.3322 14.7564 22.3258C14.7546 22.3403 14.7383 22.4 14.7166 22.5049C14.7105 22.4911 14.7027 22.4778 14.6954 22.4651C13.1911 19.7255 9.30174 18.5812 9.13767 18.5329C9.09243 18.5203 9.04659 18.5143 9.00015 18.5143C8.7842 18.5143 8.58515 18.6566 8.52242 18.8737C8.44702 19.1379 8.59903 19.4136 8.86322 19.4884C8.89881 19.4999 12.521 20.5699 13.8238 22.9435C14.1224 23.4863 14.3372 24.7247 14.4439 25.8363C14.4554 26.179 14.4777 26.5391 14.5151 26.913C14.5151 26.9287 14.5151 26.9426 14.5163 26.9583C14.4807 26.9752 14.4451 26.9939 14.4113 27.015C14.3914 27.0276 12.3545 28.2594 10.0847 28.2594C8.04047 28.2594 6.45107 26.2447 6.4378 26.226L6.32682 26.1036C5.57585 25.4039 3.53587 23.2233 3.09554 21.5797C2.68477 20.0445 3.57869 19.2936 3.66857 19.2224L4.33931 18.7266L3.97499 17.9798C3.96534 17.9629 3.11243 16.1841 3.62393 14.0712C4.38335 10.931 7.6104 10.3905 7.7425 10.3676L8.48864 10.2524L8.58214 9.50323C8.5936 9.41395 8.87891 7.28108 10.9279 5.93899C12.109 5.16389 13.6549 5.01189 14.6894 5.01189C15.3535 5.01189 15.8053 5.07341 15.8156 5.07462L16.3029 5.1458L16.6528 4.80439C16.6739 4.78328 18.7658 2.77949 21.4699 2.2137C21.6912 2.16786 21.9138 2.14675 22.134 2.14675C23.9526 2.14675 25.6524 3.58294 26.2061 4.10288C25.3321 4.73864 24.1715 5.83584 23.2131 6.8878C22.3897 7.68703 21.1646 7.86859 20.2219 7.86859C19.4468 7.86859 18.8629 7.74614 18.8502 7.74312C18.8146 7.73589 18.779 7.73166 18.7434 7.73166C18.5148 7.73166 18.3097 7.8909 18.2597 8.12253C18.2012 8.39095 18.3695 8.65454 18.6379 8.71426C18.6976 8.72813 19.3472 8.86626 20.2188 8.86626C20.6851 8.86626 21.2141 8.82645 21.7497 8.70581C21.7015 8.78242 21.6568 8.8554 21.6176 8.92477C20.7147 10.5033 21.9446 14.3685 22.0869 14.8046C22.1563 15.014 22.3499 15.146 22.5604 15.146C22.6099 15.146 22.663 15.1388 22.7136 15.1219C22.9754 15.0351 23.1172 14.754 23.0321 14.4934C22.5447 13.0108 21.9645 10.3205 22.4808 9.41757C22.7438 8.95432 23.2915 8.27574 23.9369 7.57182C23.9399 7.5676 23.9423 7.56579 23.9465 7.56217C23.958 7.5495 23.9707 7.53623 23.9809 7.52236C25.2138 6.18449 26.7857 4.76579 27.4511 4.54261C27.4523 4.5414 27.4553 4.5414 27.4565 4.5408C27.4583 4.53959 27.4607 4.53959 27.4625 4.53959C28.0229 4.34356 29.7148 4.04377 31.5184 4.04377C33.0776 4.04377 34.7201 4.26695 35.7877 4.97328C39.0859 7.15683 40.5034 11.1397 40.5167 11.1777L40.6699 11.6071L41.0861 11.7748C41.1887 11.8171 43.5694 12.8268 43.9012 15.6763C44.2408 18.5824 41.8727 20.3763 41.7816 20.4451C39.4274 18.1813 38.3525 16.0701 37.8935 14.3957C37.8916 14.3161 37.8717 14.2407 37.8349 14.1725C37.3319 12.141 37.733 10.8013 37.768 10.6945C37.8518 10.4345 37.7101 10.1547 37.4507 10.069C37.3994 10.0521 37.3458 10.0437 37.2945 10.0437C37.0852 10.0437 36.891 10.177 36.8222 10.3851C36.7836 10.5045 36.3022 12.0571 36.865 14.377C34.512 19.5765 30.689 20.6525 27.927 20.6525C26.0776 20.6525 24.7054 20.1706 24.569 20.1205C24.5123 20.0994 24.4538 20.0892 24.3971 20.0892C24.1951 20.0892 24.005 20.2146 23.9321 20.4161C23.8368 20.6737 23.9701 20.959 24.2264 21.0531C24.2632 21.0669 25.7929 21.608 27.8841 21.608C30.7632 21.608 34.7074 20.5826 37.2987 15.745C37.9797 17.4924 39.2675 19.5324 41.6248 21.6563C42.2304 22.1883 42.6345 23.3765 41.9487 24.7741C40.9962 26.7037 38.6336 28.4325 38.6106 28.4494L38.5449 28.503C38.0967 28.7449 37.2167 29.3572 35.7383 29.3572C34.4402 29.3572 32.6813 28.8855 30.3446 27.2786C27.2864 25.1759 24.5636 24.6583 22.6262 24.6583C20.8275 24.6583 19.7043 25.1047 19.6163 25.1415C19.3647 25.2507 19.2483 25.5438 19.3575 25.7953C19.4383 25.9841 19.6193 26.0969 19.8123 26.0969C19.8786 26.0969 19.9462 26.0831 20.0113 26.0553C20.0294 26.0481 20.9216 25.6789 22.4627 25.6789C23.2794 25.6789 24.2849 25.7905 25.4328 26.1066C25.434 26.1072 25.4352 26.1078 25.4364 26.1078C25.7175 26.185 26.007 26.2767 26.3056 26.3804C26.311 26.3822 26.3159 26.384 26.3207 26.3859C26.6211 26.4908 26.9287 26.6108 27.246 26.7472C27.2466 26.7472 27.2472 26.7478 27.2472 26.7478C27.6356 26.9148 28.0325 27.0964 28.4445 27.3148C28.0579 27.9819 27.4209 28.4536 26.6983 28.8028L26.0227 31.3296C27.2912 30.9791 28.6128 30.388 29.5845 29.3517C31.7838 30.7795 33.8515 31.5027 35.7389 31.5027C37.6154 31.5027 38.8453 30.8018 39.4364 30.4646L39.5631 30.3922L39.7392 30.2981L39.8954 30.1715L39.9226 30.1497C40.3774 29.8132 42.7636 27.9759 43.8735 25.7242C44.6956 24.0497 44.5756 22.4766 43.9971 21.304C44.9857 20.2249 46.355 18.197 46.0311 15.4259Z" fill="#8E6A00"/>
<path d="M30.1311 33.6952L25.3876 33.6946L27.2461 26.7447C26.6073 26.4703 26.0017 26.2609 25.4317 26.1035L16.7904 37.5858H21.5339L18.4082 48.9999L30.1311 33.6952Z" fill="#8E6A00"/>
<path d="M60.8074 16.1689H68.9021C69.8041 16.1689 70.6329 16.3096 71.3884 16.591C72.1439 16.8724 72.7953 17.252 73.3427 17.73C73.8901 18.208 74.3179 18.7592 74.6263 19.3837C74.9347 20.0082 75.0889 20.6596 75.0889 21.338C75.0889 22.1552 74.9675 22.9203 74.7246 23.6334C74.4818 24.3466 74.1059 24.9652 73.5971 25.4895C73.0883 26.0137 72.4446 26.4281 71.6659 26.7326C70.8872 27.0371 69.966 27.1894 68.9021 27.1894H66.4622V30.5314H68.0695V33.6999H60.8074V30.5314H62.6229V19.349H60.8074L60.8074 16.1689ZM66.4622 19.3495V24.056H68.0465C68.9253 24.056 69.623 23.871 70.1395 23.501C70.6561 23.1309 70.9143 22.545 70.9143 21.7432C70.9143 20.9954 70.6715 20.4095 70.1858 19.9855C69.7001 19.5615 68.987 19.3495 68.0465 19.3495L66.4622 19.3495ZM76.9969 16.1689H86.2712C87.1732 16.1689 87.9788 16.3038 88.6881 16.5736C89.3973 16.8435 89.9948 17.2039 90.4805 17.6549C90.9662 18.1059 91.3382 18.6301 91.5964 19.2275C91.8547 19.825 91.9838 20.4475 91.9838 21.0951C91.9838 21.6887 91.9202 22.209 91.793 22.6562C91.6658 23.1033 91.4808 23.5004 91.238 23.8473C90.9951 24.1943 90.6964 24.5007 90.3417 24.7667C89.9871 25.0326 89.5824 25.2735 89.1275 25.4894C89.5207 25.6898 89.8676 25.9963 90.1683 26.4087C90.4689 26.8212 90.6964 27.355 90.8505 28.0103L91.4403 30.2884H92.8858L92.9089 33.6998H87.8208L87.1269 29.5368C87.0575 29.0434 86.9515 28.6175 86.8089 28.259C86.6663 27.9005 86.4755 27.6075 86.2365 27.3801C85.9975 27.1527 85.7065 26.985 85.3634 26.8771C85.0204 26.7692 84.6137 26.7152 84.1434 26.7152H82.6516V30.5313H84.259V33.6999H76.9968V30.5313H78.8123V19.3489H76.9968L76.9969 16.1689ZM82.6517 19.3495V23.5935H84.953C85.3924 23.5935 85.7875 23.553 86.1383 23.4721C86.4891 23.3911 86.7897 23.2639 87.0403 23.0905C87.2909 22.917 87.4836 22.6992 87.6185 22.4371C87.7534 22.175 87.8209 21.8628 87.8209 21.5004C87.8209 20.822 87.578 20.2939 87.0923 19.9162C86.6067 19.5384 85.8936 19.3495 84.9531 19.3495L82.6517 19.3495ZM94.6898 16.1689H102.195V19.3374H100.345V30.5313H102.195V33.6999H94.6898V30.5313H96.5053V19.3374H94.6898V16.1689ZM112.487 21.1068C112.448 20.837 112.354 20.5826 112.203 20.3436C112.053 20.1046 111.86 19.8984 111.625 19.7249C111.39 19.5514 111.124 19.4146 110.827 19.3144C110.531 19.2142 110.22 19.164 109.896 19.1641C109.604 19.1641 109.33 19.1949 109.075 19.2566C108.821 19.3182 108.599 19.4127 108.411 19.5399C108.222 19.6671 108.071 19.8309 107.96 20.0314C107.848 20.2318 107.792 20.4708 107.792 20.7483C107.792 21.0952 107.867 21.3708 108.017 21.5751C108.168 21.7794 108.36 21.9471 108.596 22.0782C108.831 22.2092 109.091 22.3133 109.376 22.3904C109.661 22.4675 109.939 22.5523 110.209 22.6448L113.389 23.7087C113.828 23.8629 114.241 24.0749 114.626 24.3447C115.012 24.6145 115.345 24.9422 115.626 25.3276C115.908 25.7131 116.129 26.1564 116.291 26.6574C116.453 27.1585 116.534 27.7213 116.534 28.3458C116.534 29.1938 116.378 29.9686 116.066 30.6702C115.754 31.3717 115.316 31.973 114.753 32.4741C114.191 32.9752 113.516 33.3645 112.73 33.642C111.943 33.9196 111.072 34.0584 110.116 34.0583C109.445 34.0583 108.811 33.9832 108.214 33.8328C107.616 33.6825 107.071 33.4647 106.578 33.1795C106.084 32.8942 105.653 32.5531 105.282 32.1561C104.912 31.759 104.623 31.31 104.415 30.8089H103.224V27.3281H107.41V28.045C107.41 28.3919 107.466 28.7119 107.578 29.0048C107.69 29.2978 107.857 29.5522 108.081 29.7681C108.304 29.9839 108.586 30.1516 108.925 30.2711C109.264 30.3906 109.661 30.4503 110.116 30.4503C110.81 30.4503 111.338 30.2904 111.7 29.9704C112.063 29.6505 112.244 29.2053 112.244 28.6348C112.244 28.3419 112.18 28.0971 112.053 27.9005C111.926 27.7039 111.762 27.5382 111.562 27.4033C111.361 27.2683 111.138 27.1546 110.891 27.0621C110.644 26.9696 110.401 26.8848 110.162 26.8077L107.514 25.952C107.013 25.7978 106.529 25.5819 106.063 25.3044C105.597 25.0269 105.184 24.6799 104.826 24.2636C104.467 23.8473 104.182 23.3597 103.97 22.8007C103.758 22.2418 103.652 21.6038 103.652 20.8869C103.652 20.0543 103.806 19.3123 104.115 18.6609C104.423 18.0094 104.855 17.4601 105.41 17.013C105.965 16.5659 106.624 16.2266 107.387 15.9954C108.15 15.7641 108.987 15.6484 109.897 15.6484C110.613 15.6484 111.276 15.7313 111.886 15.8971C112.495 16.0628 113.04 16.2845 113.522 16.562C114.004 16.8395 114.412 17.1575 114.748 17.516C115.083 17.8745 115.339 18.2465 115.517 18.6319H116.673V22.1242H112.487V21.1068ZM121.46 30.5317H123.276V19.2337H121.148V21.5003H117.378V16.1692H133.325V21.5003H129.532V19.2337H127.115V30.5317H128.966V33.7002H121.461L121.46 30.5317ZM134.99 16.1689H142.495V19.3374H140.645V30.5313H142.495V33.6999H134.99V30.5313H136.806V19.3374H134.99V16.1689ZM155.435 16.1689H162.096V19.3489H160.674V33.6996H156.834L149.538 22.367V30.5311H151.006V33.6996H144.357V30.5311H145.802V19.3487H144.38V16.1687H149.676L156.927 27.6517V19.3488H155.435L155.435 16.1689ZM163.993 16.1689H177.938V22.1474H174.168V19.6612H169.67V23.1188H173.151V26.4723H169.67V30.5312H174.168V27.4204H177.938V33.6996H163.993V30.5311H165.831V19.6609H163.993V16.1689ZM184.692 30.5317H186.323V19.3493H184.692V16.1692H191.908L197.077 28.8207L201.876 16.1692H209.196V19.3493H207.565V30.5317H209.173V33.7002H202.616V30.5317H203.819V20.4479L198.569 33.4925H195.319L189.977 20.7949V30.5318H191.283V33.7003H184.692L184.692 30.5317ZM211.81 16.1689H219.315V19.3374H217.464V30.5313H219.315V33.6999H211.81V30.5313H213.625V19.3374H211.81V16.1689ZM232.255 16.1689H238.916V19.3489H237.493V33.6996H233.654L226.357 22.367V30.5311H227.826V33.6996H221.176V30.5311H222.622V19.3487H221.199V16.1687H226.496L233.746 27.6517V19.3488H232.255L232.255 16.1689ZM240.453 16.1689H247.184C247.985 16.1689 248.755 16.273 249.491 16.4811C250.227 16.6893 250.913 16.9822 251.549 17.36C252.185 17.7377 252.763 18.1907 253.284 18.7188C253.804 19.2469 254.249 19.8348 254.619 20.4823C254.989 21.1299 255.275 21.8276 255.475 22.5754C255.675 23.3233 255.776 24.1019 255.776 24.9114C255.776 25.7209 255.675 26.4996 255.475 27.2474C255.275 27.9952 254.989 28.6948 254.619 29.3463C254.249 29.9977 253.804 30.5914 253.284 31.1271C252.763 31.6629 252.185 32.1216 251.549 32.5032C250.913 32.8849 250.227 33.1797 249.491 33.3879C248.754 33.596 247.985 33.7001 247.184 33.7001H240.454V30.5316H241.853V19.3492H240.454L240.453 16.1689ZM245.692 19.3495V30.5319H247.161C247.785 30.5319 248.375 30.3854 248.93 30.0925C249.485 29.7995 249.967 29.4006 250.375 28.8957C250.784 28.3907 251.108 27.7971 251.347 27.1148C251.586 26.4325 251.705 25.6982 251.705 24.9118C251.705 24.1332 251.586 23.4047 251.347 22.7262C251.108 22.0478 250.784 21.4581 250.375 20.957C249.967 20.4559 249.485 20.0628 248.93 19.7775C248.375 19.4922 247.785 19.3496 247.161 19.3496L245.692 19.3495ZM266.218 21.1068C266.18 20.837 266.085 20.5826 265.935 20.3436C265.784 20.1046 265.592 19.8984 265.357 19.7249C265.121 19.5514 264.855 19.4146 264.559 19.3144C264.262 19.2142 263.952 19.164 263.628 19.1641C263.335 19.1641 263.061 19.1949 262.807 19.2566C262.552 19.3182 262.331 19.4127 262.142 19.5399C261.953 19.6671 261.803 19.8309 261.691 20.0314C261.579 20.2318 261.523 20.4708 261.523 20.7483C261.523 21.0952 261.598 21.3708 261.749 21.5751C261.899 21.7794 262.092 21.9471 262.327 22.0782C262.562 22.2092 262.822 22.3133 263.107 22.3904C263.393 22.4675 263.67 22.5523 263.94 22.6448L267.12 23.7087C267.559 23.8629 267.972 24.0749 268.357 24.3447C268.743 24.6145 269.076 24.9422 269.358 25.3276C269.639 25.7131 269.861 26.1564 270.023 26.6574C270.184 27.1585 270.265 27.7213 270.265 28.3458C270.265 29.1938 270.109 29.9686 269.797 30.6702C269.485 31.3717 269.047 31.973 268.485 32.4741C267.922 32.9752 267.247 33.3645 266.461 33.642C265.674 33.9196 264.803 34.0584 263.847 34.0583C263.177 34.0583 262.543 33.9832 261.945 33.8328C261.348 33.6825 260.802 33.4647 260.309 33.1795C259.816 32.8942 259.384 32.5531 259.014 32.1561C258.644 31.759 258.354 31.31 258.146 30.8089H256.955V27.3281H261.141V28.045C261.141 28.3919 261.197 28.7119 261.309 29.0048C261.421 29.2978 261.589 29.5522 261.812 29.7681C262.036 29.9839 262.317 30.1516 262.656 30.2711C262.996 30.3906 263.393 30.4503 263.847 30.4503C264.541 30.4503 265.069 30.2904 265.432 29.9704C265.794 29.6505 265.975 29.2053 265.975 28.6348C265.975 28.3419 265.912 28.0971 265.784 27.9005C265.657 27.7039 265.493 27.5382 265.293 27.4033C265.092 27.2683 264.869 27.1546 264.622 27.0621C264.376 26.9696 264.133 26.8848 263.894 26.8077L261.246 25.952C260.744 25.7978 260.261 25.5819 259.794 25.3044C259.328 25.0269 258.915 24.6799 258.557 24.2636C258.199 23.8473 257.913 23.3597 257.701 22.8007C257.489 22.2418 257.383 21.6038 257.383 20.8869C257.383 20.0543 257.537 19.3123 257.846 18.6609C258.154 18.0094 258.586 17.4601 259.141 17.013C259.696 16.5659 260.355 16.2266 261.118 15.9954C261.882 15.7641 262.718 15.6484 263.628 15.6484C264.345 15.6484 265.008 15.7313 265.617 15.8971C266.226 16.0628 266.771 16.2845 267.253 16.562C267.735 16.8395 268.143 17.1575 268.479 17.516C268.814 17.8745 269.071 18.2465 269.248 18.6319H270.404V22.1242H266.218V21.1068Z" fill="#8E6A00"/>
</svg>
